<svg width="64" height="64" viewBox="0 0 64 64" fill="none" xmlns="http://www.w3.org/2000/svg">
<path fill-rule="evenodd" clip-rule="evenodd" d="M62.5 42C63.325 42 64 42.675 64 43.5V46.5C64 47.325 63.325 48 62.5 48H1.5C0.675049 48 0 47.325 0 46.5V1.5C0 0.675049 0.675049 0 1.5 0H4.5C5.32495 0 6 0.675049 6 1.5V42H62.5ZM18 34.5V25.5C18 24.675 17.325 24 16.5 24H13.5C12.675 24 12 24.675 12 25.5V34.5C12 35.325 12.675 36 13.5 36H16.5C17.325 36 18 35.325 18 34.5ZM30 9.5V34.5C30 35.325 29.325 36 28.5 36H25.5C24.675 36 24 35.325 24 34.5V9.5C24 8.67505 24.675 8 25.5 8H28.5C29.325 8 30 8.67505 30 9.5ZM42 34.5V17.5C42 16.675 41.325 16 40.5 16H37.5C36.675 16 36 16.675 36 17.5V34.5C36 35.325 36.675 36 37.5 36H40.5C41.325 36 42 35.325 42 34.5ZM54 5.5V34.5C54 35.325 53.325 36 52.5 36H49.5C48.675 36 48 35.325 48 34.5V5.5C48 4.67505 48.675 4 49.5 4H52.5C53.325 4 54 4.67505 54 5.5Z" transform="translate(0 8)" fill="black"/>
<mask id="mask0" mask-type="alpha" maskUnits="userSpaceOnUse" x="0" y="8" width="64" height="48">
<path fill-rule="evenodd" clip-rule="evenodd" d="M62.5 42C63.325 42 64 42.675 64 43.5V46.5C64 47.325 63.325 48 62.5 48H1.5C0.675049 48 0 47.325 0 46.5V1.5C0 0.675049 0.675049 0 1.5 0H4.5C5.32495 0 6 0.675049 6 1.5V42H62.5ZM18 34.5V25.5C18 24.675 17.325 24 16.5 24H13.5C12.675 24 12 24.675 12 25.5V34.5C12 35.325 12.675 36 13.5 36H16.5C17.325 36 18 35.325 18 34.5ZM30 9.5V34.5C30 35.325 29.325 36 28.5 36H25.5C24.675 36 24 35.325 24 34.5V9.5C24 8.67505 24.675 8 25.5 8H28.5C29.325 8 30 8.67505 30 9.5ZM42 34.5V17.5C42 16.675 41.325 16 40.5 16H37.5C36.675 16 36 16.675 36 17.5V34.5C36 35.325 36.675 36 37.5 36H40.5C41.325 36 42 35.325 42 34.5ZM54 5.5V34.5C54 35.325 53.325 36 52.5 36H49.5C48.675 36 48 35.325 48 34.5V5.5C48 4.67505 48.675 4 49.5 4H52.5C53.325 4 54 4.67505 54 5.5Z" transform="translate(0 8)" fill="white"/>
</mask>
<g mask="url(#mask0)">
<rect width="64" height="64" fill="#4BB9E4"/>
</g>
</svg>
