<!-- <svg width="22" height="22" viewBox="0 0 22 22" fill="none" xmlns="http://www.w3.org/2000/svg">
<path d="M8.55407 0C10.1045 0 11.5391 0.392062 12.8578 1.17618C14.1588 1.92467 15.1835 2.94937 15.932 4.2503C16.7161 5.56906 17.1081 7.00365 17.1081 8.55407C17.1081 9.56987 16.9388 10.5411 16.6002 11.4678C16.2616 12.3767 15.7894 13.2053 15.1835 13.9538L22 20.7704L20.7704 22L13.9538 15.1835C13.2053 15.7894 12.3767 16.2616 11.4678 16.6002C10.5411 16.9388 9.56987 17.1081 8.55407 17.1081C7.00364 17.1081 5.56906 16.7161 4.2503 15.932C2.94937 15.1835 1.92467 14.1588 1.17618 12.8578C0.392061 11.5391 0 10.1045 0 8.55407C0 7.00365 0.392061 5.56906 1.17618 4.2503C1.92467 2.94937 2.94937 1.92467 4.2503 1.17618C5.56906 0.392062 7.00364 0 8.55407 0ZM8.55407 1.71081C7.3066 1.71081 6.16606 2.02268 5.13244 2.64642C4.08101 3.25233 3.25233 4.081 2.64642 5.13244C2.02268 6.16606 1.71081 7.3066 1.71081 8.55407C1.71081 9.80154 2.02268 10.951 2.64642 12.0024C3.25233 13.036 4.08101 13.8647 5.13244 14.4885C6.16606 15.0944 7.3066 15.3973 8.55407 15.3973C9.80154 15.3973 10.951 15.0944 12.0024 14.4885C13.036 13.8647 13.8647 13.036 14.4885 12.0024C15.0944 10.951 15.3973 9.80154 15.3973 8.55407C15.3973 7.3066 15.0944 6.16606 14.4885 5.13244C13.8647 4.081 13.036 3.25233 12.0024 2.64642C10.951 2.02268 9.80154 1.71081 8.55407 1.71081Z" fill="#8B8B8B"/>
</svg> -->
<svg width="22" height="22" viewBox="0 0 22 22" fill="none" xmlns="http://www.w3.org/2000/svg">
  <rect width="100%" height="100%" fill="white"/>
  <path d="M8.55407 0C10.1045 0 11.5391 0.392062 12.8578 1.17618C14.1588 1.92467 15.1835 2.94937 15.932 4.2503C16.7161 5.56906 17.1081 7.00365 17.1081 8.55407C17.1081 9.56987 16.9388 10.5411 16.6002 11.4678C16.2616 12.3767 15.7894 13.2053 15.1835 13.9538L22 20.7704L20.7704 22L13.9538 15.1835C13.2053 15.7894 12.3767 16.2616 11.4678 16.6002C10.5411 16.9388 9.56987 17.1081 8.55407 17.1081C7.00364 17.1081 5.56906 16.7161 4.2503 15.932C2.94937 15.1835 1.92467 14.1588 1.17618 12.8578C0.392061 11.5391 0 10.1045 0 8.55407C0 7.00365 0.392061 5.56906 1.17618 4.2503C1.92467 2.94937 2.94937 1.92467 4.2503 1.17618C5.56906 0.392062 7.00364 0 8.55407 0ZM8.55407 1.71081C7.3066 1.71081 6.16606 2.02268 5.13244 2.64642C4.08101 3.25233 3.25233 4.081 2.64642 5.13244C2.02268 6.16606 1.71081 7.3066 1.71081 8.55407C1.71081 9.80154 2.02268 10.951 2.64642 12.0024C3.25233 13.036 4.08101 13.8647 5.13244 14.4885C6.16606 15.0944 7.3066 15.3973 8.55407 15.3973C9.80154 15.3973 10.951 15.0944 12.0024 14.4885C13.036 13.8647 13.8647 13.036 14.4885 12.0024C15.0944 10.951 15.3973 9.80154 15.3973 8.55407C15.3973 7.3066 15.0944 6.16606 14.4885 5.13244C13.8647 4.081 13.036 3.25233 12.0024 2.64642C10.951 2.02268 9.80154 1.71081 8.55407 1.71081Z" fill="#8B8B8B"/>
</svg>
