<svg width="64" height="64" viewBox="0 0 64 64" fill="none" xmlns="http://www.w3.org/2000/svg">
<path fill-rule="evenodd" clip-rule="evenodd" d="M42.3907 6.72697L56.5006 0.463172C60.001 -1.09164 64 1.45426 64 5.33414V37.3125C64 39.419 62.7588 41.3278 60.8329 42.1834L44.8329 49.2906C43.6168 49.8308 42.2427 49.8971 40.9802 49.4765L21.6093 43.0231L7.49939 49.2869C3.99902 50.8417 0 48.2958 0 44.4159V12.4375C0 10.3311 1.24121 8.42216 3.16724 7.56669L19.1672 0.45951C20.3833 -0.0807735 21.7574 -0.147058 23.0199 0.273597L42.3907 6.72697ZM24 38.2013L40 43.5317V11.5496L24 6.21928V38.2013ZM5.33337 44.4202V12.4383L18.6667 6.51566V38.4977L5.33337 44.4202ZM45.3334 43.2358L58.6667 37.3133V5.33121L45.3334 11.2538V43.2358Z" transform="translate(0 7.125)" fill="#4BB9E4"/>
<mask id="mask0" mask-type="alpha" maskUnits="userSpaceOnUse" x="0" y="7" width="64" height="50">
<path fill-rule="evenodd" clip-rule="evenodd" d="M42.3907 6.72697L56.5006 0.463172C60.001 -1.09164 64 1.45426 64 5.33414V37.3125C64 39.419 62.7588 41.3278 60.8329 42.1834L44.8329 49.2906C43.6168 49.8308 42.2427 49.8971 40.9802 49.4765L21.6093 43.0231L7.49939 49.2869C3.99902 50.8417 0 48.2958 0 44.4159V12.4375C0 10.3311 1.24121 8.42216 3.16724 7.56669L19.1672 0.45951C20.3833 -0.0807735 21.7574 -0.147058 23.0199 0.273597L42.3907 6.72697ZM24 38.2013L40 43.5317V11.5496L24 6.21928V38.2013ZM5.33337 44.4202V12.4383L18.6667 6.51566V38.4977L5.33337 44.4202ZM45.3334 43.2358L58.6667 37.3133V5.33121L45.3334 11.2538V43.2358Z" transform="translate(0 7.125)" fill="#4BB9E4"/>
</mask>
<g mask="url(#mask0)">
<rect width="64" height="64" fill="#4BB9E4"/>
</g>
</svg>
