<svg width="64" height="64" viewBox="0 0 64 64" fill="none" xmlns="http://www.w3.org/2000/svg">
<path fill-rule="evenodd" clip-rule="evenodd" d="M4.80005 0H59.2C61.85 0 64 2.1521 64 4.80469V36.8359C64 39.4885 61.85 41.6406 59.2 41.6406H35.71V44.8438H51.71C53.48 44.8438 54.91 46.2751 54.91 48.0469C54.91 49.8186 53.48 51.25 51.71 51.25H13.3101C11.54 51.25 10.11 49.8186 10.11 48.0469C10.11 46.2751 11.54 44.8438 13.3101 44.8438H29.3101V41.6406H4.80005C2.15002 41.6406 0 39.4885 0 36.8359V4.80469C0 2.1521 2.15002 0 4.80005 0ZM6.39978 35.2344H57.5997V6.40625H6.39978V35.2344Z" transform="translate(0 6.375)" fill="#4BB9E4"/>
<mask id="mask0" mask-type="alpha" maskUnits="userSpaceOnUse" x="0" y="6" width="64" height="52">
<path fill-rule="evenodd" clip-rule="evenodd" d="M4.80005 0H59.2C61.85 0 64 2.1521 64 4.80469V36.8359C64 39.4885 61.85 41.6406 59.2 41.6406H35.71V44.8438H51.71C53.48 44.8438 54.91 46.2751 54.91 48.0469C54.91 49.8186 53.48 51.25 51.71 51.25H13.3101C11.54 51.25 10.11 49.8186 10.11 48.0469C10.11 46.2751 11.54 44.8438 13.3101 44.8438H29.3101V41.6406H4.80005C2.15002 41.6406 0 39.4885 0 36.8359V4.80469C0 2.1521 2.15002 0 4.80005 0ZM6.39978 35.2344H57.5997V6.40625H6.39978V35.2344Z" transform="translate(0 6.375)" fill="#4BB9E4"/>
</mask>
<g mask="url(#mask0)">
<rect width="64" height="64" fill="#4BB9E4"/>
</g>
</svg>
